<svg xmlns="http://www.w3.org/2000/svg"><symbol id="brachiosaurus" viewBox="0 0 256 256"><path d="M58.7 167.2a32.5 32.5 0 0 0-7.7.9c0 .3.3.6.8 1l2 1 2.6 1 2.9.9 2.4.6 1.4.2h2.2l2.5-.4a8.5 8.5 0 0 0 2.4-.9 4.2 4.2 0 0 0 1.7-1.5 28.5 28.5 0 0 0-6.4-2.2 30.8 30.8 0 0 0-6.8-.6z"/><path d="M128 .3A127.7 127.7 0 1 0 255.7 128 127.7 127.7 0 0 0 128 .3zm83.3 70.5v.3a8.8 8.8 0 0 1-.1 1.4c-.2.7-.2 1.4-.4 2.1l-.3 2.1c-.1.7-.2 1.1-.2 1.4a7.7 7.7 0 0 0-1 1.8l-.6 2-.6 2a14.6 14.6 0 0 1-.7 1.9 22.7 22.7 0 0 1-1.7 3.1 22.5 22.5 0 0 0-1.6 3.1l-20 27.8a1.1 1.1 0 0 1-.3.5l-.2.3-.4.3-.4.5-1.6 2.3c-.7.9-1.4 1.8-2.1 2.9l-2.2 3.2c-.7 1.1-1.4 2.2-2 3.3s-1 2.1-1.4 3a8 8 0 0 0-.5 2.3c0 .3-.2.5-.2.7s.2.5.2.7a.3.3 0 0 0-.3.3.5.5 0 0 0 .3.5v10.2a2.2 2.2 0 0 1-.3 1l-.3 1.1-.7 1.3c-.1.4-.4.8-.4 1.1v1.7a.8.8 0 0 1 0 .5c-.2.2-.2.5-.4.8s-.6.5-.7.8l-.6.4v.4c0 .1.7.2.8.4s.9.3.9.4v2.9a21.4 21.4 0 0 1-.6 3.5c-.2 1.2-.6 2.4-.8 3.5s-.5 2.4-.7 3.6-.3 2.3-.3 3.5.1 4.2.3 6.3a42.3 42.3 0 0 0 1.1 6.2 31 31 0 0 0 2.1 5.8 25 25 0 0 0 3.5 5.2 5.7 5.7 0 0 1-1.3.8l-1.7.7-1.7.5h-1.9l-1.1-.3-1.2-.2-.9-.3h-.8l-.7-.3a1.8 1.8 0 0 1-.7-.5l-.3-.7a27.7 27.7 0 0 0 .1-4.1 29.7 29.7 0 0 0-.3-4.2c-.1-1.5-.3-2.9-.5-4.3s-.4-2.8-.5-4.1a6.4 6.4 0 0 1-.2-.7 1.6 1.6 0 0 0-.3-.6c.1-1.1.1-2.3.2-3.6a28.2 28.2 0 0 0-.2-4.1 27.6 27.6 0 0 0-.6-4 9.4 9.4 0 0 0-1.4-3.4 3.7 3.7 0 0 0-1.4 1.8 21.3 21.3 0 0 0-.8 2.7 25 25 0 0 1-.5 2.9c-.2 1-.9 1.8-.9 2.4v7.6c0 2.8-.2 5.6-.1 8.3a77.2 77.2 0 0 0 .6 8.2c0 .1.1.2.4.4l.8.6a2.7 2.7 0 0 1 .8.7c.2.2.4.4.4.6s-.3.5-.9.8l-1.8.9-2.1.8-1.2.4h-.2l-4.8-2.6c-.3-.1-.2-.4-.2-.5v-.6a29.9 29.9 0 0 1 0-3 28.1 28.1 0 0 0 .1-3 23.4 23.4 0 0 0-.3-3.8l-.6-3.7-.6-3.8c-.1-1.3-.2-2.6-.2-3.9s0-2.4.1-3.4l.3-2.8.6-2.8c.2-.9.4-2 .6-3.2a.8.8 0 0 0 0-.7 2.3 2.3 0 0 1-.1-.7 5.8 5.8 0 0 0-1.9.2l-1.9.5-1.9.6-1.9.5-1.4.2-1.1.2c-.3 0-.6-.2-1-.1l-1-.2h-1.9a44.7 44.7 0 0 1-5.2-.1h-7.8a4 4 0 0 0-2.3.8v5.3c0 1.7-.1 3.4-.2 5.1s-.2 3.4-.2 5.1-.2 3.5-.2 5.2v5.1c0 .6.7 1.2 1.1 1.7l1.5 1.7 1.2 1.8a4.1 4.1 0 0 1 .5 1.8v.4a8.8 8.8 0 0 1-4 .4c.1.5 0 .7-.3.8h-2.7l-2.3-.2a6.1 6.1 0 0 1-1.8-.9 2.2 2.2 0 0 1-.7-1.9 6.2 6.2 0 0 1 .1-1.3l.3-1.3.3-1.3a5.9 5.9 0 0 0 .2-1.4 23.4 23.4 0 0 0-.3-3.8c-.2-1.2-.4-2.4-.7-3.6s-.5-2.7-.8-3.9a27 27 0 0 1-.7-4h-.5c-.2 0-.3.8-.5 1s-.2.5-.4.7l-.3.5-1.6 2.3a17.6 17.6 0 0 0-1.4 2.3 10.4 10.4 0 0 0-1.2 2.4 7.7 7.7 0 0 0-.4 2.7 4.5 4.5 0 0 0 .3 1.6 10.7 10.7 0 0 0 .7 1.5 6.2 6.2 0 0 0 .8 1.2l.3.6a.8.8 0 0 1-.4.7l-1 .5-1.4.3h-2.6l-1.7-.2a1.8 1.8 0 0 1-1.1-.4 2.7 2.7 0 0 1-.7-.8 10.7 10.7 0 0 1-.6-1.7 14.2 14.2 0 0 0-.5-1.6 4.5 4.5 0 0 1-.3-1.6 3 3 0 0 1 .5-1.5 8.3 8.3 0 0 1 .9-1.6l1.1-1.6a10.9 10.9 0 0 0 .8-1.5c.8-1.9 1.7-3.9 2.5-5.9l2.4-5.9.5-.8.5-.7.5-.7a2.9 2.9 0 0 0 .2-.9c0-.3-.2-.6-.4-.6h-1.3l-9 2.4a2.3 2.3 0 0 1-1.3.6l-1.8.4a4.4 4.4 0 0 0-1.6.6 1.1 1.1 0 0 0-.7 1 1.2 1.2 0 0 0 .3.9l.7.7.8.5.7.6-.4.5-1.2-.9-1.5-.8-1.5-.6-1.5-.3a13.1 13.1 0 0 0-3.8.6l-4 1.1-4.1 1.1a15.2 15.2 0 0 1-4.2.6l-3.5-.4-4.9-1.2c-1.8-.5-3.6-1-5.5-1.7a46.7 46.7 0 0 1-5-2.3 15.4 15.4 0 0 1-3.7-2.7 4.2 4.2 0 0 1-1.4-3 4.4 4.4 0 0 1 1.1-3.2 6.2 6.2 0 0 1 2.8-1.7 13.4 13.4 0 0 1 3.5-.1 31.1 31.1 0 0 1 3.3.3h4c.2 0 .6-.4 1.3-.3a23.2 23.2 0 0 1 2.4.2l2.5.3 2 .3 2 .5 1.8.9a9.6 9.6 0 0 0 1.8.7 6.5 6.5 0 0 0 2 .4 8.9 8.9 0 0 0 4-1.1 25.7 25.7 0 0 0 4.1-2.6l4-3.1 3.2-2.7 1.9-1.3 1.9-1.1 1.7-1.2 1.5-1.8a33 33 0 0 0 2.6-4.5 39.9 39.9 0 0 1 2.7-4.4l1.4-1.3 1.5-1 1.6-.8 1.7-1 3.6-2.6c1.2-.9 2.3-1.9 3.4-2.9l3.4-3 3.5-2.9a17.9 17.9 0 0 1 3.8-2.2l3.9-1.9 2.5-1.3 2.5-1.3 2.6-1.2a13.4 13.4 0 0 1 2.7-.7l22.5-3.3a9.5 9.5 0 0 0 3.5-1.1 17.9 17.9 0 0 0 3.4-2.2 42 42 0 0 0 3.2-2.9l2.9-3.3 2.7-3.2 2.3-2.8 7.8-9q0-.2.3-.3l.5-.6.5-.5q.3-.1.3-.3l2.1-3.2.2-.2.4-.2.4-.3c.1-.1.2-.1.2-.2l.4-.4.4-.4a12.5 12.5 0 0 0 1.2-1.7 14.3 14.3 0 0 0 1.4-2 21.4 21.4 0 0 0 1.3-1.9 18 18 0 0 0 1-1.8l.9-2a17.2 17.2 0 0 1 .7-2.1c.2-.8.5-1.5.7-2.2s1-1.5 1-2.2v-6.2a4.7 4.7 0 0 0-1.1-3.1 12.8 12.8 0 0 0-2.6-2.6 11.1 11.1 0 0 0-3.4-1.8 8.1 8.1 0 0 0-3.2-.7 22 22 0 0 0-5.8.7 12.2 12.2 0 0 0-5.2 2.6l-1.4 1.5-1.7 1.8-1.7 2.1a16.2 16.2 0 0 1-1.9 1.8 10.2 10.2 0 0 1-1.8 1.3 3.1 3.1 0 0 1-1.8.5 1.5 1.5 0 0 1-1.1-.4 1.6 1.6 0 0 1-.6-1.2v-.4l.2-.5c0-.2.1-.5.1-.8s.1-.5.2-.7v-.5a8.8 8.8 0 0 0-.2-1.7l-.6-1.3c-.3-.5-.4-.9-.6-1.2a2.8 2.8 0 0 1-.3-1.3 1.2 1.2 0 0 0 .9-.3.9.9 0 0 0 .4-.6l.5-.7a1 1 0 0 1 .8-.6c0-.1.2-.1.5-.1h2.3a1.1 1.1 0 0 0 1-.4 2.2 2.2 0 0 1 .7-.6h.4c0 .1.1.2.2.4s.1.3.2.4.2-.3.4-.4l.6-.3 1.1-.7 1.4-.8 1.4-.8 1.1-.7a1.1 1.1 0 0 0 .5-.4l2.1-1.2 1.8-.7 2-.2h6.4l1.5.5 1.5.3 1.6.3 1.6.5a14.4 14.4 0 0 1 4.5 3.1 17 17 0 0 1 3.3 4.2 20.4 20.4 0 0 1 1.7 5.1 24.7 24.7 0 0 1 .5 5.4V70c-.1.2 0 .5 0 .8z"/></symbol><symbol id="micropachycephalosaurus" viewBox="0 0 256 256"><path d="M131.9 151.2c-.3 0-.4.2-.4.6h-.1a.5.5 0 0 0-.5.5c0 .4.2.6.5.6s.4-.2.4-.6h.1c.3 0 .5-.1.5-.5s-.2-.6-.5-.6zm1.5-.8a3.6 3.6 0 0 0-.9.8h.3a2.3 2.3 0 0 0 1.1-.3 2.4 2.4 0 0 0 .9-.8h-.3a2 2 0 0 0-1.1.3zm3-2.5c-.3 0-.4.1-.4.5h-.1c-.3 0-.5.2-.5.6h-.1c-.3 0-.5.2-.5.6a.5.5 0 0 0 1 0h.1c.3 0 .4-.2.4-.6h.1c.4 0 .5-.2.5-.6s-.1-.5-.5-.5zm23.3-6a8.7 8.7 0 0 1-1.2 1.4 1.7 1.7 0 0 0 .8 1.1l1.1.2a2.4 2.4 0 0 0 1.4-.5 6.3 6.3 0 0 0 1.1-1.2l.8-1.5c.2-.5.3-1.2.5-1.2h-3.5c-.2 0-.5 1.1-1 1.7z"/><path d="M127.3.3A127.7 127.7 0 1 0 255 128 127.6 127.6 0 0 0 127.3.3zm95.8 75.8l-1.6.4h-3.7a35.6 35.6 0 0 0-5.2 1.3 14.2 14.2 0 0 0-3.7 1.6 10.3 10.3 0 0 0-2.5 2.1 14.9 14.9 0 0 0-1.8 3 40.4 40.4 0 0 0-1.5 3.9l-1.6 5.1-1.2 3.5c-.4 1.1-.9 2.2-1.3 3.2a23 23 0 0 1-1.5 3.2l-1.7 3.2a24.2 24.2 0 0 1-2.7 4.1 34.7 34.7 0 0 1-3 3.7L187 118l-3.1 3.8a11.6 11.6 0 0 0-1.4 2.7 20 20 0 0 1-1 2.6 7.1 7.1 0 0 1-1.3 2.2 5.7 5.7 0 0 1-2.5 1.6l-1.3.6-2.1.6-2 .7-1.4.4a3 3 0 0 1 .2 2 2 2 0 0 1-.9.9l-1.2.6a1.8 1.8 0 0 0-.9 1l-2.3 6.7a2.5 2.5 0 0 1-1 1.6 9.8 9.8 0 0 1-1.8.8 13.6 13.6 0 0 1-2 .2 10.9 10.9 0 0 1-1.9-.1h-2a.8.8 0 0 1-.4-.8c0-.2.1-.3.1-.4l.3-.3.2-.3c.1-.1.1-.2.1-.4v-.2a28.1 28.1 0 0 0-3.5 1.7l-3.4 2.1-3.3 2.2-3.4 1.9-.9.5-1.1.6a3.9 3.9 0 0 0-1 .8 1.4 1.4 0 0 0-.5 1c0 .1.1.2.1.3v.3l1.8 1.6 1.9 1.7 2.1 1.6a12 12 0 0 0 2.1 1.3l1.8.7 2 .5 1.9.7a7 7 0 0 1 1.7.9 8.6 8.6 0 0 1 1.3 1.4l1.1 1.5 1.1 1.5a6.4 6.4 0 0 0 1.5 1.3l1.7.6 2.1.6a7.7 7.7 0 0 1 1.8 1 2.3 2.3 0 0 1 .8 1.7v.3c0 .1-.1.2-.1.3l-5.6 1.1-1.1.4-1.2.2h-.5l-1.2-.6-1.7-1-1.7-1.1-1.1-.7-.2-.2-.3-.5-.3-.6-.3-.4-2.2-4.6-1.2-.4-1.8-.8-2.2-.9-2.1-1-1.8-.8-1.1-.6a16.4 16.4 0 0 1-2.8-1.6 13.3 13.3 0 0 1-2.6-2.1 13.9 13.9 0 0 1-2.1-2.7 8.6 8.6 0 0 1-1-3.2l-.6.3-.6.3-.8.7-1.8 1.1-2.1 1.5-2.1 1.3-1.8 1.1-.9.5-6 3.6a20.3 20.3 0 0 0-4.6 3.4 15.9 15.9 0 0 0-3.6 4.5c-.9 1.7-.8 3.9-2.4 6.6v.6c-.1.2 0 .4 0 .6v.4a10.6 10.6 0 0 0 1.1 4.5 7.8 7.8 0 0 0 2.2 2.5 8.4 8.4 0 0 0 2.6 1.5l2.6.9a8.5 8.5 0 0 1 1.9 1 4.5 4.5 0 0 1 .9 2h-13.5l-.2-.4-.4-.2h-.5l-.6-.3a2.8 2.8 0 0 1-1.2-1.6 7.1 7.1 0 0 1-.5-2.4 9.3 9.3 0 0 1 .2-2.3c0-.8.3-1.5.3-2.1v-1.4a6.9 6.9 0 0 1 .2-1.8 18.1 18.1 0 0 0 .6-2.7c.3-1 .5-2 .8-3.2s.5-2.1.8-3.1.5-1.9.7-2.7l.4-1.8a11.8 11.8 0 0 1 .7-2 10.7 10.7 0 0 1 .9-1.9 13.5 13.5 0 0 0 4.6-2.6 19.9 19.9 0 0 0 3.2-3.3l3-3.4a14.5 14.5 0 0 1 3.4-3.1 3.5 3.5 0 0 1 1.5-.7l2-.8 2.3-1a22.5 22.5 0 0 0 2.2-1.1 11.4 11.4 0 0 0 1.6-1.4 2.2 2.2 0 0 0 .6-1.5v-1.4a1.7 1.7 0 0 0-.6-1.2l-.8-.3-1.2-.5-1.2-.6-.8-.3a9.4 9.4 0 0 1-2-1.2l-2.7-1.9a25.6 25.6 0 0 0-2.5-1.6 3 3 0 0 0-1.8-.5h-7.9c-6 0-11.9-.1-17.7.1s-11.8.2-17.8.2c-4.4 0-8.7-.2-12.9-.4a103.9 103.9 0 0 1-12.5-1.4 99.8 99.8 0 0 1-12-2.9 76.1 76.1 0 0 1-11.9-5.1l-1.4-.7-1.6-1-1.3-1.3a2.5 2.5 0 0 1-.5-1.6 5.9 5.9 0 0 1 2.1.4l2.4.9 2.2 1 1.5.6c1.5.6 3 1.2 4.7 1.7l5.1 1.4a30.6 30.6 0 0 0 5.1 1 28.5 28.5 0 0 0 4.9.4h26.7l2.5-.4 3.4-.5 3.6-.6 3.5-.6 2.7-.6 6.9-1.4c2.5-.4 4.9-1 7.4-1.6s4.9-1.3 7.3-2.1a39.7 39.7 0 0 0 6.6-2.8l3.9-1.8 3.8-1.6 4-1.3a25.9 25.9 0 0 1 4.2-.9l1-.2h3.6l1-.2 1.9-.3 3.4-.8 4.1-.9 4-.9c1.3-.3 2.4-.9 3.4-1.1s1.5-.8 1.9-.8h6.5a67.7 67.7 0 0 1 8 .8c2.6.2 5.2.5 7.9.5a10.1 10.1 0 0 0 5-1.3 17 17 0 0 0 4.6-3.5 33.3 33.3 0 0 0 3.9-5 64.8 64.8 0 0 0 3.3-5.7c.9-1.9 1.8-3.8 2.5-5.6l1.8-4.8c.4-1.2.8-2.4 1.1-3.5s.7-2.2 1-3.1.8-1.9 1.2-2.7a11.2 11.2 0 0 1 1.8-2A8.8 8.8 0 0 1 207 68a12.7 12.7 0 0 1 3.8-.8h3.1c.7 1.7 1.7 1 2.9 1.4a30 30 0 0 1 3.6 1.5 14 14 0 0 1 3 1.8 3.1 3.1 0 0 1 1.3 2.2 2 2 0 0 1-.5 1.4 3.1 3.1 0 0 1-1.1.6z"/></symbol><symbol id="velociraptor" viewBox="0 0 256 256"><path d="M128.7.3A127.7 127.7 0 1 0 256.3 128 127.7 127.7 0 0 0 128.7.3zm110.4 116.5h-7.4c-3.1 0-6.2-.2-9.2-.5l-9.1-.9-9.2-1c-3-.3-6.1-.4-9.2-.4a151.6 151.6 0 0 0-16.4.9 77.2 77.2 0 0 0-15.8 3.7l-30.7 11.1a2.4 2.4 0 0 0-1.2 1.6 21.3 21.3 0 0 0-.8 2.7c-.3 1-.5 2-.7 2.9a6 6 0 0 1-.6 2 3.6 3.6 0 0 0 1.4 1.3l2.5 1.2 2.9 1.1a23.4 23.4 0 0 1 2.7 1.5 6.5 6.5 0 0 1 2.1 1.9 3.5 3.5 0 0 1 .8 2.4 2 2 0 0 1-.4 1.3 5.7 5.7 0 0 1-1.3.8l-1.6.8-1.6.8a4 4 0 0 0-1.2 1 2.5 2.5 0 0 0-.5 1.5 4 4 0 0 0 .8 2.6 10 10 0 0 0 1.9 1.6l2.4 1.3a7.2 7.2 0 0 1 2.2 1.7 17.5 17.5 0 0 1 2 3.5 23.2 23.2 0 0 1 1.3 3.7 38.2 38.2 0 0 1 .8 3.9c.1 1.3.1 2.6.2 3.9l1.3 1.3v7.2h.9l1 .2 1 .2.6.3a5.4 5.4 0 0 0 .1.8 5.8 5.8 0 0 1-.2 1 2.7 2.7 0 0 1-.3 1.2l-.6 1a1.1 1.1 0 0 1-.9.3h-5.2c-.2 0-.6-.6-1-.9l-1.5-.8-1.6-.8c-.5-.3-.9-.9-1.2-.9h-6.1a4.8 4.8 0 0 1 .6-2.9 4.4 4.4 0 0 1 1.7-1.6 6.5 6.5 0 0 1 2.1-.6l2.1-.4a3.4 3.4 0 0 0 1.6-.6 1.4 1.4 0 0 0 .7-1.4v-.3a.4.4 0 0 0-.1-.3 11.2 11.2 0 0 0-.8-1.8c-.4-.7-.8-1.6-1.3-2.4l-1.5-2.5a10 10 0 0 0-1.6-1.8l-1.3-.8-1.8-1-1.8-1c-.5-.4-.9-.7-1-1.1s-.6-1.8-.9-3a30.1 30.1 0 0 0-1.1-3.2 7.8 7.8 0 0 0-1.7-2.6 3.9 3.9 0 0 0-2.9-1 24.8 24.8 0 0 0-6.1.7 28.3 28.3 0 0 0-5.7 2.3 24.9 24.9 0 0 0-5 3.5 19.5 19.5 0 0 0-4 4.6l-.3.2h-.3a.5.5 0 0 1-.2-.4c-.1-.1-.1-.4-.2-.6a1.4 1.4 0 0 0-.2-.6.4.4 0 0 0-.1-.3h-.3a1.6 1.6 0 0 0-1.1.5 4.4 4.4 0 0 0-.8 1.1l-.9 1.4a3.9 3.9 0 0 1-.8 1 5.6 5.6 0 0 1-.7-1.7v-1.6a9.2 9.2 0 0 1 .4-2.9c.2-1 .5-1.9.8-2.9a18.6 18.6 0 0 0 1-2.5c.2-1 .4-2.8.4-2.8h-4.9c0-1.7.2-1.8.6-2.4a8.7 8.7 0 0 1 1.7-1.6 10.2 10.2 0 0 1 2.1-.9l2.1-.3 3 .2 3 .5 2.9.5 2.9.2h2.3a2.7 2.7 0 0 0-1.7-1.4l-2.5-.4-2.7-.2c-.9-.1-1.6.1-2.2-.2l-3.9-2.2h-.3a17.4 17.4 0 0 0-3.2-.1 10.8 10.8 0 0 1-3.1.2 7.8 7.8 0 0 1-3.1-.7l-2.6-1.4-2.6-1.3a5.4 5.4 0 0 0-2.9-.7v5.7h1.6l1-.4.9-.5c.3-.2.3-.4.8-.6l.7-.2v2.7l2-.7c0 .1.2.3.2.5a4.3 4.3 0 0 0 .1.5 5.6 5.6 0 0 1-1.3 3.9 19 19 0 0 1-3.3 2.9 20.9 20.9 0 0 0-4.6-1.2l-4.8-.7v-7.8l-1.7.5-2.1 1a10.5 10.5 0 0 0-1.9 1.2c-.5.4-1 .8-1 1.2v6.9a9.6 9.6 0 0 0 3-.3l1.9-.6 1.2-.6 1.2-.2h.4a1.7 1.7 0 0 0 .3.7c.1.4.3.8.4 1.3a6.5 6.5 0 0 1 .4 1.3 4.4 4.4 0 0 1 .2 1 4.6 4.6 0 0 1-.4 1.9 8.7 8.7 0 0 1-1.1 1.8 4.7 4.7 0 0 1-1.5 1.3 3.3 3.3 0 0 1-1.9.6h-1l-3-.5-3.7-.7a9.3 9.3 0 0 1-3.2-1.3 2.5 2.5 0 0 1-1.5-2.1V150l.9-.8 1.9-1.7 2.4-2.1a28.4 28.4 0 0 0 2.4-2.6 21.1 21.1 0 0 0 1.8-2.7 5 5 0 0 0 .7-2.5 4.1 4.1 0 0 0-1.1-2.8 12.7 12.7 0 0 0-2.9-2.1l-3.2-1.4-2.6-.9-1.3-9.1a15.7 15.7 0 0 0-.6-2.8 12.8 12.8 0 0 0-1.1-2.7 7.9 7.9 0 0 0-1.8-2.2 4.6 4.6 0 0 0-2.7-.8 12.8 12.8 0 0 0-3.6.4l-3.2 1.5-1.7 1.1-2.5 1.5-3 1.7-3 1.8-2.5 1.6c-.8.5-1.4 1.2-1.7 1.2h-1l-1.7-.3-2.1-.3a4.7 4.7 0 0 1-1.4-.8c-.5-.3-.4-.8-.4-1.4v-1.9c0-.6-.2-.9.1-.9h1.6c0-.1-.1-.2 0-.4s.1-.6.1-.9.1-.6.2-.8.1-.5 0-.5a2.4 2.4 0 0 0-.8-.9l-.9-.5c-.3-.1-.5-.4-.7-.6a2.3 2.3 0 0 1-.3-1.3 3.5 3.5 0 0 1 .3-1.2 4.1 4.1 0 0 1 .7-1.1c.3-.4.2-.7.6-.9l.8-.3v.7a4.7 4.7 0 0 0 .6 1.5 1.1 1.1 0 0 0 1.2.8 1.8 1.8 0 0 0 1.1-.5 3.8 3.8 0 0 0 .9-1.2 11.1 11.1 0 0 0 .7-1.6c.1-.4.2.3.2-1.4H21.8a1.4 1.4 0 0 1-.9-.5l-1-.6-1-.8a2.1 2.1 0 0 1-.4-1.1 4.8 4.8 0 0 1 1.1-3.2 10 10 0 0 1 2.6-1.8 17 17 0 0 1 3.2-1 17.1 17.1 0 0 0 2.9-.8l2.2-.9 3.4-1.6 3.3-1.6a14.1 14.1 0 0 1 2.2-1.1h13.7a7.6 7.6 0 0 1 3.9 1 12.6 12.6 0 0 1 3.1 2.5c.9 1.1 1.8 2.2 2.6 3.4a27.5 27.5 0 0 0 2.3 3.3 14 14 0 0 0 2.2 2.5 3.8 3.8 0 0 0 2.5 1.1.9.9 0 0 0 .8-.4 1 1 0 0 1 .9-.4 4 4 0 0 1 1.5.3l1.5.7 1.6.7a4 4 0 0 0 1.5.3l4.1-.2 4.2-.4 4.1-.5a27.3 27.3 0 0 1 4.1-.3c2.6 0 5 .2 7.3.4a39.9 39.9 0 0 1 7.3 1.6l5.1 2 5.1 2.2a53.4 53.4 0 0 0 5.2 1.8 25.1 25.1 0 0 0 5.5.7h2.6l12.9-2.8 12.9-2.3c4.3-.6 8.6-1.1 13-1.5s8.7-.6 13.1-.6h8.9a32.9 32.9 0 0 1 5.1 1l36.5 7.2h11.8c-.8 0-1.8 1.1-3.1 1.4a14.1 14.1 0 0 1-4.1.2z"/></symbol></svg>